<?xml version="1.0" encoding="UTF-8"?><svg id="Calque_2" xmlns="http://www.w3.org/2000/svg" xmlns:xlink="http://www.w3.org/1999/xlink" viewBox="0 0 16.02 16"><defs><style>.cls-1{fill:none;}.cls-2{fill:#1d1d1b;}.cls-3{clip-path:url(#clippath);}</style><clipPath id="clippath"><rect class="cls-1" width="16.02" height="16"/></clipPath></defs><g id="Calque_1-2"><g class="cls-3"><path class="cls-2" d="M6.72,5.1s-.05,0-.08,0c-.39.01-.78.12-1.13.33-.89.51-1.32,1.49-1.15,2.44.41-.15.74-.35,1.04-.55.05-.37.27-.72.63-.93.21-.12.45-.18.68-.18.44,0,.87.21,1.1.62.36.62.14,1.45-.49,1.81-.29.17-.61.2-.91.13-.15.14-.32.26-.5.37-.18.11-.37.21-.56.3.51.36,1.14.51,1.76.41h0l2.44,4.22c.58,1.01,1.43,1.62,2.32,1.84.89.21,1.78.04,2.5-.41,1.45-.89,2.24-2.95,1.13-4.86l-.56-.97h0c-.66-1.22-1.52-2.05-2.54-2.55.43,1.55.59,3.09.54,4.64l.97-1.15.16-.1.35.61c.74,1.28.12,2.45-.71,2.96-1.2.56-2.11.41-2.85-.78l-2.42-4.19c.7-.76.87-1.92.33-2.85-.44-.76-1.24-1.17-2.06-1.17ZM6.11,0c.13.65-.03,1.27-.5,1.87-.53.68-1.49,1.31-2.86,1.72-1.17.36-1.97.98-2.39,1.72-.43.73-.47,1.56-.19,2.28.5,1.27,2.04,2.12,4.09,1.6.43-.14.93-.34,1.31-.58.08-.05.16-.1.23-.16-.13-.12-.24-.27-.32-.44-.44.27-1,.55-1.74.65-1.61.3-2.64-.4-3-1.3-.21-.54-.18-1.15.15-1.73.33-.57.98-1.11,2.03-1.43,1.46-.44,2.53-1.12,3.17-1.94C6.65,1.58,6.87.78,6.75,0h-.64Z"/></g></g></svg>