<?xml version="1.0" encoding="UTF-8"?><svg id="Calque_2" xmlns="http://www.w3.org/2000/svg" xmlns:xlink="http://www.w3.org/1999/xlink" viewBox="0 0 14.22 18.63"><defs><style>.cls-1{fill:none;}.cls-2{fill:#1d1d1b;}.cls-3{clip-path:url(#clippath);}</style><clipPath id="clippath"><rect class="cls-1" width="14.22" height="18.63"/></clipPath></defs><g id="Calque_1-2"><g class="cls-3"><path class="cls-2" d="M4.45,10.61c.33-.16.69-.27,1.08-.33.08-.23.14-.46.19-.68.05-.22.08-.38.1-.48l.44.28.48-.42c-.04.13-.09.31-.17.54s-.16.48-.26.74c.3.01.53.03.7.05.17.02.32.04.44.06,0,.05,0,.1,0,.14,0,.05,0,.09,0,.14l-.28.14v.09s.01.09.01.09c0,.03,0,.06.02.1-.14,0-.27-.02-.39-.03-.12-.01-.25-.02-.38-.02s-.25.01-.38.03c-.13.02-.26.06-.4.11-.1.03-.2.11-.3.24-.1.12-.17.26-.23.4s-.09.28-.09.42c0,.14.05.25.14.33.14.12.31.21.5.27.19.06.38.12.56.18.1.03.19.06.28.08.09.02.17.05.25.09.08.03.16.07.23.1.07.03.13.07.19.13.06.06.12.15.16.27s.07.26.07.41c0,.15-.04.31-.11.49-.07.17-.18.35-.33.52-.14.16-.35.3-.61.43-.26.12-.59.22-.98.27-.02.11-.05.23-.08.36-.03.13-.07.26-.11.39-.04.12-.07.24-.11.35-.03.11-.06.19-.07.24l-.22-.21-.56.21c0-.1.03-.26.05-.5.02-.23.05-.5.09-.8-.29,0-.54-.03-.74-.06-.21-.03-.43-.09-.66-.18l.41-.43-.14-.25c.14.03.3.06.49.09.19.03.38.05.58.05s.39-.02.58-.07c.19-.04.35-.12.49-.24.07-.06.13-.14.17-.24.04-.1.05-.19.04-.3s-.05-.2-.11-.29c-.06-.09-.16-.16-.3-.21-.14-.05-.3-.1-.45-.15-.16-.05-.31-.11-.46-.18-.15-.06-.28-.14-.41-.23-.13-.09-.23-.2-.31-.33-.05-.09-.08-.19-.1-.31-.02-.12-.02-.24,0-.38.01-.13.04-.27.09-.4.04-.13.1-.26.17-.37.2-.33.47-.58.8-.75M4.42,7.19c-1.29.79-2.4,2.11-3.18,3.57C.45,12.22,0,13.83,0,15.14c0,1.31.41,2.27,1.3,2.69,0,0,0,0,0,0h0c.99.46,2.6.77,4.3.8,1.7.03,3.48-.22,4.83-.8.87-.38,1.37-1.13,1.61-2.15.24-1.02.18-2.29-.09-3.54-.27-1.26-.76-2.5-1.35-3.48-.59-.98-1.29-1.69-1.91-1.93-.58-.22-1.15-.33-1.69-.32-.91,0-1.77.29-2.58.78M4.98,4.72c-.59,0-1.18.17-1.74.51l.38.64c.86-.51,1.69-.56,2.59-.18.02-.22.07-.42.15-.6.01-.03.03-.06.05-.09-.47-.18-.95-.27-1.42-.26M7.1,4.31s.03-.01.05-.02c-.14-.22-.29-.41-.46-.59-.51-.55-1.12-.96-1.71-1.35l-.42.61c.59.4,1.15.78,1.58,1.24.16.17.29.35.41.54.15-.18.33-.33.54-.43M7.98,4.88c-.22,0-.42.03-.57.1-.17.08-.3.19-.38.39-.04.08-.06.18-.08.3.02,0,.04,0,.05,0,.64,0,1.29.11,1.95.36.31.12.6.3.87.52.13-.1.2-.19.23-.26.05-.11.04-.21-.02-.35-.14-.29-.6-.67-1.14-.88-.27-.11-.55-.17-.81-.18-.03,0-.06,0-.1,0M8.09,4.13c.37-1.38,1.11-2.57,1.74-3.63-.41-.34-.75-.47-.99-.47h0c-.4,0-.71.25-.95.8-.36.8-.41,2.12-.06,3.3,0,0,.01,0,.02,0,.08,0,.16,0,.24,0M13.84,1.38c-.08-.29-.39-.65-.81-.92C12.61.19,12.09.02,11.65,0c-.03,0-.05,0-.08,0-.39,0-.66.12-.82.41-.69,1.2-1.52,2.44-1.93,3.86.11.03.22.07.33.11.29.11.57.26.81.43,1.09-1.01,2.31-1.79,3.47-2.59.45-.31.49-.54.4-.83M13.98,3.02c-.04-.07-.08-.13-.12-.19-1.16.8-2.32,1.55-3.34,2.49.02.02.03.05.05.07.82-.27,1.96-.61,2.93-.77.45-.08.62-.26.7-.52.08-.27.02-.66-.21-1.07"/></g></g></svg>