<?xml version="1.0" encoding="UTF-8"?><svg id="Calque_2" xmlns="http://www.w3.org/2000/svg" viewBox="0 0 12.3 16.19"><defs><style>.cls-1{fill:#1d1d1b;}</style></defs><g id="Calque_1-2"><path class="cls-1" d="M8.68,7.4l1.47,1.12,2.15-2.83h0s-1.47-1.12-1.47-1.12l-2.15,2.83ZM6.7,5.9l1.54,1.17,2.29-3.02-1.54-1.17-2.29,3.02ZM0,5.98l3.46,5.23-.78,4.99h6.38v-4.1l1.21-1.68.37-1.64-.39.51-4.76-3.52-.34.03.16.07,2.13,4.74-.57.08-1.98-4.4-1.37-.61-.14-1.06,1.35.67,1.25-.11.58-1.19-3.8-1.85L0,5.98ZM5.89,3.04l1.41.69-.66,1.36,1.95-2.57-1.46-1.11-1.24,1.63ZM4.99,0l-1.44,1.9,1.84.9,1.2-1.58-1.6-1.21Z"/></g></svg>