<?xml version="1.0" encoding="UTF-8"?><svg id="Calque_2" xmlns="http://www.w3.org/2000/svg" xmlns:xlink="http://www.w3.org/1999/xlink" viewBox="0 0 13.62 13.62"><defs><style>.cls-1{fill:none;}.cls-2{fill:#1d1d1b;}.cls-3{clip-path:url(#clippath);}</style><clipPath id="clippath"><rect class="cls-1" width="13.62" height="13.62"/></clipPath></defs><g id="Calque_1-2"><g class="cls-3"><path class="cls-2" d="M.47,12.77L0,13.23l.39.39.47-.47-.39-.39ZM4.47,8.11l-3.94,3.94,1.01,1.01,3.94-3.94-1.01-1.01ZM9.06,1.09c-.89,0-1.77.34-2.45,1.02-1.36,1.36-1.36,3.54,0,4.9.3.3.63.53.99.7-.73-.56-1.2-1.44-1.2-2.42,0-.45.1-.87.27-1.26-.12.6.01,1.2.42,1.61.72.72,2.01.59,2.88-.28.87-.87,1-2.16.28-2.88-.07-.07-.14-.13-.22-.18,1.32.25,2.34,1.36,2.46,2.72.13-1.03-.2-2.1-.99-2.89-.68-.68-1.56-1.02-2.45-1.02ZM9.06.54c1.03,0,2.05.39,2.84,1.18,1.57,1.57,1.57,4.11,0,5.68-1.51,1.51-3.9,1.57-5.48.19h0c-.07-.07-.14-.13-.2-.19-.07-.06-.13-.13-.19-.2h0c-1.38-1.57-1.32-3.97.19-5.48.79-.79,1.81-1.18,2.84-1.18M9.06,0C7.89,0,6.72.45,5.83,1.34c-1.72,1.72-1.78,4.47-.19,6.26l-.46.46.39.39.46-.46c1.79,1.59,4.54,1.53,6.26-.19,1.78-1.78,1.78-4.68,0-6.46C11.4.45,10.23,0,9.06,0Z"/></g></g></svg>