<?xml version="1.0" encoding="UTF-8"?><svg id="Calque_2" xmlns="http://www.w3.org/2000/svg" xmlns:xlink="http://www.w3.org/1999/xlink" viewBox="0 0 18.62 17.27"><defs><style>.cls-1{fill:none;}.cls-2{fill:#1d1d1b;}.cls-3{clip-path:url(#clippath);}</style><clipPath id="clippath"><rect class="cls-1" width="18.62" height="17.27"/></clipPath></defs><g id="Calque_1-2"><g class="cls-3"><path class="cls-2" d="M11.8,6.5l-.25.94c.55.15.92.63.92,1.2s-.38,1.05-.92,1.2l.25.94c.97-.26,1.64-1.14,1.64-2.14s-.68-1.88-1.64-2.14M12.47,4l-.25.94c1.68.45,2.84,1.97,2.84,3.7s-1.16,3.25-2.84,3.7l.25.94c2.1-.56,3.56-2.47,3.56-4.64s-1.46-4.08-3.56-4.64M13.14,1.49l-.25.94c2.81.75,4.76,3.3,4.76,6.2s-1.95,5.45-4.76,6.21l.25.94c3.23-.87,5.48-3.8,5.48-7.14s-2.25-6.28-5.48-7.14M10.36,0l-5.18,5.18H0v6.91h5.18l5.18,5.18V0Z"/></g></g></svg>