<?xml version="1.0" encoding="UTF-8"?><svg id="Calque_2" xmlns="http://www.w3.org/2000/svg" xmlns:xlink="http://www.w3.org/1999/xlink" viewBox="0 0 15.22 17.43"><defs><style>.cls-1{fill:none;}.cls-2{fill:#1d1d1b;}.cls-3{clip-path:url(#clippath);}</style><clipPath id="clippath"><rect class="cls-1" width="15.22" height="17.43"/></clipPath></defs><g id="Calque_1-2"><g class="cls-3"><path class="cls-2" d="M4.46,11.35v.71h.51l-2.01,5.37h.76l2.03-5.37v5.37h.72v-5.37s2.05,5.37,2.05,5.37h.76l-2.02-5.37h.51v-.71h-3.31M0,7.84h.71v-1.26H0v1.26ZM15.22,6.49l-3.71,1.59v.79l3.71,1.59v-3.97ZM1.42,10.64h9.38v-4.33H1.42v4.33ZM2.33,1.26C1.12,1.26.16,2.23.16,3.43s.97,2.17,2.17,2.17,2.17-.97,2.17-2.17-.97-2.17-2.17-2.17M8,0C6.45,0,5.2,1.25,5.2,2.8s1.25,2.8,2.8,2.8,2.8-1.25,2.8-2.8S9.55,0,8,0"/></g></g></svg>