<?xml version="1.0" encoding="UTF-8"?><svg id="Calque_2" xmlns="http://www.w3.org/2000/svg" xmlns:xlink="http://www.w3.org/1999/xlink" viewBox="0 0 19.99 19.13"><defs><style>.cls-1{fill:none;}.cls-2{fill:#1d1d1b;}.cls-3{clip-path:url(#clippath);}</style><clipPath id="clippath"><rect class="cls-1" width="19.99" height="19.13"/></clipPath></defs><g id="Calque_1-2"><g class="cls-3"><path class="cls-2" d="M19.41,11.01c-.23,0-.49.03-.77.07-.65.11-1.44.32-2.31.6l-.04.05c-.51.64-.95,1.2-1.33,1.71.64.4,1.04.85,1.46,1.29-.61-.24-1.14-.49-1.89-.69-.21.3-.41.58-.59.86.4.15.83.28,1.28.39,1.12.27,2.33.42,3.4.69-.75-1.13-1.81-2.3-3.1-3.21.84-.17,1.69-.36,2.45-.62.83-.29,1.5-.66,1.88-1.11-.08,0-.14-.02-.23-.02-.07,0-.14,0-.22,0ZM10.28,10.26c.07,1.01.87,1.73,1.88,2.44-1.51-.23-2.47-.87-2.86-2.13-.57.4-1.23.76-1.93,1.03-.8.31-1.66.49-2.49.44.35.45.65.85.93,1.24,1.05.8,1.9,1.53,4.28,1.89-1,.15-2.14.26-3.02-.04.67,1.07,1.18,2.73,1.8,3.99h2.21c.33-.66.63-1.91.93-2.48-.69.57-1.44.69-2,.63,1.42-.61,2.23-1.56,3.09-2.48.52-.81,1.14-1.68,1.98-2.76-.83.05-1.69-.13-2.49-.44-.87-.34-1.68-.82-2.33-1.34M14.96,9.62c-.79.46-1.68.88-2.29.88-.26,0-.52-.02-.78-.07.32.18.65.33,1,.47.62.24,1.26.38,1.87.4.12-.53.2-1.09.2-1.68M5.03,9.62c0,.58.08,1.14.2,1.68.6-.02,1.25-.16,1.87-.4.34-.13.68-.29,1-.47-.25.04-.52.07-.78.07-.61,0-1.51-.42-2.29-.88M5.81,4.71c-.05.22-.08.41-.1.57.92.52,2.6.84,4.28.84s3.36-.32,4.28-.84c-.02-.16-.05-.35-.1-.57-3.39,1.08-4.98,1.08-8.37,0M.67,4.35h-.21c-.07,0-.12,0-.16.01l-.02.02C.08,4.67,0,4.91,0,5.13s.08.43.26.66c.35.46,1.11.95,2.12,1.35,2.02.81,4.99,1.31,7.62,1.31s5.6-.5,7.62-1.31c1.01-.4,1.77-.89,2.12-1.35.17-.23.25-.45.25-.66s-.07-.46-.29-.74l-.02-.02c-.08-.01-.25-.02-.47,0-.49.03-1.24.13-2.16.26-.62.08-1.31.18-2.06.27.03.22.05.43.05.61v.2l-.17.11c-1.13.75-3,1.06-4.88,1.06s-3.75-.31-4.88-1.06l-.17-.11v-.2c0-.19.02-.39.05-.61-.75-.09-1.45-.18-2.06-.27-.92-.12-1.67-.23-2.16-.26-.04,0-.08,0-.11,0M7.5,0c-.31.67-.72,1.64-1.07,2.62-.17.47-.32.94-.44,1.37,3.37,1.08,4.64,1.08,8,0-.12-.43-.27-.9-.44-1.37-.35-.98-.76-1.95-1.07-2.62-1.1.55-1.78.87-2.49.87s-1.39-.32-2.49-.87"/></g></g></svg>