<?xml version="1.0" encoding="UTF-8"?><svg id="Calque_2" xmlns="http://www.w3.org/2000/svg" xmlns:xlink="http://www.w3.org/1999/xlink" viewBox="0 0 25.37 25.49"><defs><style>.cls-1{fill:none;}.cls-2{fill:#1d1d1b;}.cls-3{clip-path:url(#clippath);}</style><clipPath id="clippath"><rect class="cls-1" width="25.37" height="25.49"/></clipPath></defs><g id="Calque_1-2"><g class="cls-3"><path class="cls-2" d="M6.62,24.36H0s0,1.13,0,1.13h25.37v-1.13s-6.63,0-6.63,0c-.05.09-.13.15-.23.15h-2.18c-.11,0-.18-.06-.25-.15h-.5c-.06.09-.13.15-.25.15h-2.22c-.09,0-.15-.09-.19-.15h-.49c-.07.1-.14.15-.27.15h-2.14c-.12,0-.19-.04-.25-.15h-.51c-.06.09-.12.15-.23.15h-2.18c-.11,0-.19-.05-.24-.15M8.26,18.61h-.62s0,4.11,0,4.11h.62v-4.11ZM8.81,23.21h-1.71v.82s1.71,0,1.71,0v-.82ZM7.1,18.11h1.7s0-.81,0-.81h-1.71s0,.81,0,.81ZM9.05,18.6h-.3v4.11h.27c.15,0,.27.1.27.26v.89s.47,0,.47,0v-.89c0-.13.1-.25.23-.25h.31v-4.11h-.3c-.13-.01-.25-.1-.25-.24v-.93s-.47,0-.47,0v.94c0,.13-.12.23-.24.24M11.96,23.21h-1.71v.82s1.71,0,1.71,0v-.82ZM10.8,18.61v4.11h.62v-4.11h-.62ZM11.96,17.3h-1.71s0,.81,0,.81h1.71s0-.81,0-.81ZM12.2,18.6h-.3v4.11h.29c.14,0,.26.11.26.26v.89s.46,0,.46,0v-.89c0-.13.1-.24.23-.25h.31v-4.11h-.3c-.15,0-.24-.12-.24-.26v-.91s-.46,0-.46,0v.95c0,.14-.14.22-.26.22M15.12,23.21h-1.71s0,.82,0,.82h1.71s0-.82,0-.82ZM13.95,18.61v4.11h.62v-4.11h-.62ZM15.12,17.3h-1.71s0,.81,0,.81h1.71v-.81ZM15.37,18.6h-.31v4.11h.27c.17,0,.27.12.27.28v.87s.47,0,.47,0v-.89c0-.14.1-.25.24-.25h.3v-4.11h-.31c-.13-.01-.23-.11-.23-.24v-.93h-.47v.95c0,.12-.12.22-.23.22M18.28,17.3h-1.71s0,.81,0,.81h1.7s0-.81,0-.81ZM17.11,22.72h.62v-4.11h-.62s0,4.11,0,4.11ZM18.27,23.21h-1.7v.82s1.7,0,1.7,0v-.82ZM6.02,16.59v-1.42S0,15.17,0,15.17v1.42s6.02,0,6.02,0ZM2.08,19.32h1.32v-1.32h-1.32v1.32ZM3.39,22.14v-1.32h-1.32v1.32h1.32ZM4.72,19.32h1.31v-1.32h-1.32v1.32ZM4.72,22.14h1.32s0-1.32,0-1.32h-1.32s0,1.32,0,1.32ZM6.52,20.6v1.79c0,.12-.09.24-.23.24h-1.8c-.16,0-.26-.11-.26-.27v-1.76c0-.16.1-.26.26-.26h1.76c.16,0,.27.1.27.26M6.52,17.78v1.78c0,.13-.09.23-.23.25h-1.82c-.14,0-.24-.11-.24-.25v-1.78c0-.16.11-.26.26-.26h1.76c.16,0,.27.1.27.26M3.88,20.6v1.79c0,.13-.1.24-.25.24h-1.8c-.13,0-.25-.11-.25-.24v-1.81c0-.14.11-.24.25-.24h1.78c.16,0,.26.11.26.26M3.88,17.78v1.78c0,.13-.1.25-.25.25h-1.8c-.14,0-.25-.11-.25-.24v-1.81c0-.13.11-.24.25-.24h1.79c.16,0,.26.11.26.26M6.6,17.43h-.37c-.15-.04-.23-.17-.2-.35H.79v6.78h5.82v-.89c0-.14.1-.25.24-.25h.3v-4.11h-.31c-.13,0-.23-.11-.23-.24v-.93ZM10.77,12.6h-3.02s0,1.41,0,1.41c.07,0,.11,0,.19-.04l2.83-1.37ZM8.68,10.85v1.25h3.14l.74-.36c.08-.04.18-.04.27,0l.71.35h3.01s0-1.25,0-1.25h-7.87ZM16.75,9.49h-8.26v.87s8.26,0,8.26,0v-.87ZM12.66,5.37c-2.02.01-3.71,1.6-3.84,3.63h7.72c-.14-2.09-1.87-3.64-3.89-3.63M13.34,3.73h-1.31s0,1.2,0,1.2c.45-.06.86-.06,1.31,0v-1.2ZM12.53,3.49h.36V0h-.36s0,3.48,0,3.48ZM17.31,2.44V.19c-.08.03-.13.06-.19.09-1.33.84-2.57-.57-3.88.09v2.24c.38-.2.75-.27,1.14-.18l.95.22c.69.16,1.35.18,1.98-.22M14.57,12.59l2.91,1.4v-1.4h-2.91ZM12.87,13.25l5.98,2.89v-.94s-6.16-2.98-6.16-2.98l-6.16,2.98v.94s6-2.9,6-2.9c.12-.06.21-.07.34,0M12.69,13.71l-3.98,1.93h7.97s-3.99-1.93-3.99-1.93ZM18.52,16.81c.19,0,.15.17.33.13v-.25s-1.16-.56-1.16-.56H7.68s-1.16.56-1.16.56v.25c.18.04.12-.12.34-.12h2.16c.1,0,.17.05.24.12.16,0,.35.01.52,0,.06-.04.13-.12.23-.12h2.16c.11,0,.19.04.25.13h.52c.06-.07.13-.13.22-.13h2.18c.1,0,.17.06.24.12h.52c.07-.08.15-.12.26-.12h2.16ZM21.98,20.82v1.32s1.31,0,1.31,0v-1.32h-1.31ZM19.34,20.82v1.32h1.31s0-1.32,0-1.32h-1.31ZM19.34,19.32h1.31s0-1.32,0-1.32h-1.31s0,1.32,0,1.32ZM21.98,19.32h1.31s0-1.32,0-1.32h-1.31s0,1.32,0,1.32ZM23.78,19.56c0,.13-.1.25-.25.25h-1.8c-.14,0-.25-.1-.25-.25v-1.81c0-.14.12-.24.25-.24h1.79c.14,0,.26.1.26.24v1.8ZM21.14,19.56c0,.12-.09.24-.24.24h-1.8c-.07,0-.14-.03-.18-.07-.05-.04-.08-.11-.08-.18v-1.8c0-.14.12-.24.26-.24h1.79c.13,0,.25.1.25.24v1.81ZM18.85,22.38v-1.8c0-.14.12-.24.26-.24h1.81c.06,0,.12.03.16.07.04.04.07.1.07.17v1.81c0,.12-.1.24-.24.24h-1.8c-.07,0-.13-.02-.18-.07-.05-.04-.08-.11-.08-.18M21.49,22.38v-1.81c0-.13.1-.23.23-.24h1.81c.14,0,.26.1.26.24v1.8c0,.13-.1.25-.25.25h-1.8c-.07,0-.13-.03-.18-.07-.05-.04-.07-.1-.07-.17M24.58,17.08h-5.24c.02.18-.05.32-.21.34h-.37s0,.94,0,.94c0,.15-.13.24-.26.24h-.28v4.11h.3c.14,0,.25.12.25.26v.89h5.82v-6.78ZM25.37,15.17h-6.03v1.42s6.03,0,6.03,0v-1.43Z"/></g></g></svg>