<?xml version="1.0" encoding="UTF-8"?><svg id="Calque_2" xmlns="http://www.w3.org/2000/svg" xmlns:xlink="http://www.w3.org/1999/xlink" viewBox="0 0 17.33 17.3"><defs><style>.cls-1{fill:none;}.cls-2{fill:#1d1d1b;}.cls-3{clip-path:url(#clippath);}</style><clipPath id="clippath"><rect class="cls-1" width="17.33" height="17.3"/></clipPath></defs><g id="Calque_1-2"><g class="cls-3"><path class="cls-2" d="M5.36,13.27c.85,1.41,2.08,2.08,3.31,2.08s2.46-.67,3.31-2.08l.58.35c-.95,1.58-2.41,2.41-3.88,2.41s-2.94-.83-3.88-2.41l.58-.35ZM5.29,12.43c-.82,0-1.38.31-1.66.99.95,2.31,2.86,3.88,5.03,3.88s4.08-1.56,5.03-3.88c-.28-.68-.84-.99-1.66-.99-.49,0-1.06.13-1.67.4-.25.73-.93,1.21-1.7,1.21-.77,0-1.45-.49-1.7-1.21-.61-.27-1.19-.4-1.67-.4M8.66,11.05c-.66,0-1.2.54-1.2,1.2,0,.25.08.5.23.7.06-.9.77-1.61,1.67-1.67-.2-.15-.45-.23-.7-.23M11.06,7.19c-.13,0-.31.12-.5.42-.2.3-.38.75-.52,1.22-.15.47-.26.97-.33,1.38-.03.14-.04.25-.06.37.4-.13.72-.23,1.01-.27-.13-.11-.2-.27-.2-.44,0-.33.27-.6.6-.6s.6.27.6.6c0,.17-.07.33-.2.44.29.05.6.14,1.01.27-.01-.12-.03-.23-.06-.37-.07-.41-.18-.9-.33-1.38-.15-.47-.32-.91-.52-1.22-.19-.3-.37-.42-.5-.42M6.27,7.19c-.13,0-.31.12-.5.42-.2.3-.38.75-.52,1.22-.15.47-.25.97-.33,1.38-.03.14-.04.25-.06.37.4-.13.72-.23,1.01-.27-.13-.11-.2-.27-.2-.44,0-.33.27-.6.6-.6s.6.27.6.6c0,.17-.07.33-.2.44.29.05.6.14,1.01.27-.01-.12-.03-.23-.06-.37-.07-.41-.18-.9-.33-1.38-.15-.47-.33-.91-.52-1.22-.2-.3-.37-.42-.5-.42M4.92,4.79c-1.16,1.3-1.91,3.21-1.91,5.36,0,.87.12,1.69.35,2.46.45-.55,1.15-.85,1.94-.85.49,0,1.03.11,1.58.31.03-.34.17-.66.38-.93-.44-.14-.73-.2-.99-.2-.38,0-.79.13-1.69.43l-.44.15v-.47c0-.21.04-.53.12-.97.08-.44.19-.95.35-1.45.15-.51.35-1,.6-1.39.12-.19.27-.37.44-.5l.63-1.39.63,1.39c.17.13.31.31.44.5.25.39.45.88.6,1.39.15.5.27,1.02.35,1.45.03.14.05.27.06.4.1-.02.21-.03.32-.03.11,0,.21.01.31.03.02-.12.04-.25.06-.4.08-.44.2-.95.35-1.45.15-.51.35-1,.6-1.39.12-.19.27-.37.44-.5l.63-1.39.63,1.39c.17.13.31.31.44.5.25.39.45.88.6,1.39.15.5.27,1.02.35,1.45.08.43.12.76.12.97v.47l-.44-.15c-.9-.3-1.32-.43-1.69-.43-.26,0-.54.06-.98.2.21.27.34.59.38.93.55-.2,1.09-.31,1.58-.31.79,0,1.49.29,1.94.85.22-.76.35-1.59.35-2.46,0-2.15-.75-4.05-1.91-5.36h-7.49ZM14.73,3.58c-.12,0-.25.03-.39.07-.47.14-.97.48-1.3.84,1.21,1.43,1.95,3.45,1.95,5.66v.05c.48.14.8.18.93.16.07-.01.08-.03.08-.02,0,0,0,0,.01-.03.01-.08,0-.28-.02-.51-.01-.22,0-.54.23-.77.27-.27.6-.54.82-.8.23-.26.33-.48.29-.7-.02-.14-.09-.23-.26-.34-.16-.11-.41-.21-.68-.32-.27-.1-.56-.21-.82-.37-.27-.16-.52-.39-.62-.73-.08-.26-.02-.5.07-.7.09-.2.21-.36.31-.51.1-.15.19-.29.23-.38.03-.09.03-.12.02-.16-.13-.24-.29-.34-.48-.4-.07-.02-.16-.03-.25-.03h-.09ZM2.5,3.58c-.09,0-.17.01-.25.04-.2.05-.35.16-.48.4-.02.04-.02.07.01.16.04.1.12.23.23.38.1.15.22.31.31.51.09.19.15.44.07.7-.11.34-.36.57-.62.73-.26.16-.55.27-.82.37-.27.11-.52.2-.68.32-.16.11-.23.2-.26.34-.04.22.07.44.29.7s.54.53.82.8c.24.24.24.55.23.77-.01.23-.03.43-.02.51,0,.04.01.04,0,.03,0,0,0,.01.08.02.13.02.44-.02.93-.16v-.05c0-2.21.74-4.23,1.95-5.66-.33-.36-.83-.7-1.3-.84-.14-.04-.27-.06-.39-.07-.03,0-.06,0-.09,0ZM4.96,3.22l.34.9h7.02l.14-.9h-7.51ZM8.66,0C7.23,0,6.64.51,6.33,1.16c-.21.42-.28.92-.31,1.39h5.28c-.03-.46-.11-.96-.32-1.38C10.66.51,10.07,0,8.66,0"/></g></g></svg>