<?xml version="1.0" encoding="UTF-8"?><svg id="Calque_2" xmlns="http://www.w3.org/2000/svg" xmlns:xlink="http://www.w3.org/1999/xlink" viewBox="0 0 11.41 17.69"><defs><style>.cls-1{fill:none;}.cls-2{fill:#1d1d1b;}.cls-3{clip-path:url(#clippath);}</style><clipPath id="clippath"><rect class="cls-1" width="11.41" height="17.69"/></clipPath></defs><g id="Calque_1-2"><g class="cls-3"><path class="cls-2" d="M5.03,12.79c-.05.06-.11.09-.19.09-.08,0-.14.02-.19.05-.13.01-.25.06-.35.13-.1.08-.21.13-.33.15-.12,0-.21.02-.28.08-.07.06-.13.12-.17.19-.05.07-.1.15-.15.23-.06.08-.12.14-.19.18-.23.3-.36.67-.37,1.12v.4s-.02.2-.02.2c.06.06.08.15.08.27,0,.04,0,.1-.02.15,0,.06-.01.11-.02.15.11.12.24.28.37.47.13.19.29.34.46.45.1.03.17.1.2.21.03.1.11.16.23.16.28.13.6.2.97.21.52.02.96-.08,1.32-.29.36-.21.58-.42.66-.62.02-.09.05-.17.11-.24.05-.07.11-.15.16-.23.05-.08.1-.17.14-.26.04-.09.06-.21.07-.34,0-.12,0-.23-.01-.33-.01-.1-.01-.21-.01-.33,0-.07.01-.14.03-.21.02-.07.03-.12.03-.17,0-.07-.03-.2-.1-.37-.07-.17-.2-.36-.4-.58-.12-.05-.22-.12-.3-.21-.09-.09-.17-.19-.26-.3-.07-.09-.17-.14-.3-.15-.13-.01-.26-.04-.37-.09-.2-.11-.47-.17-.79-.18M5.16,0c-.12,0-.22,0-.29.03-.08.03-.16.04-.27.03h-.16c-.07,0-.19.02-.35.07-.16.05-.29.08-.39.07h-.09c-.1,0-.25.03-.44.12-.19.08-.34.14-.46.16-.07.17-.18.28-.34.32-.16.04-.33.1-.49.18-.17.16-.33.31-.49.47-.16.16-.28.34-.36.56-.18.11-.31.25-.38.42-.07.17-.17.33-.29.49-.08.11-.12.27-.14.46-.01.19-.09.32-.22.39,0,.12.02.22.07.31.05.09.07.2.07.34,0,.19.08.35.25.47.17.12.35.19.53.2.09,0,.18,0,.28-.01.1-.01.2-.01.3-.01.16,0,.33.02.49.03.16.01.33.02.51.03.25,0,.49,0,.71,0,.22,0,.42-.04.6-.11.18-.07.34-.17.48-.3.14-.14.24-.33.31-.58.01-.03.07-.07.15-.14.08-.06.18-.13.3-.19.11-.06.23-.11.36-.15.13-.04.24-.06.35-.05.06,0,.11.02.15.04.04.02.1.04.15.04.28,0,.49.12.64.32.15.2.32.39.5.56.01.09.02.18.02.27,0,.09,0,.19,0,.29-.01.37-.08.66-.19.88-.12.09-.21.2-.27.34-.06.14-.16.22-.31.24-.18.07-.37.14-.56.21-.19.08-.41.11-.65.1-.12,0-.23-.03-.34-.08-.11-.05-.24-.07-.41-.08-.03,0-.06,0-.09,0-.03,0-.06,0-.09,0-.03.07-.08.12-.15.14-.07.02-.14.04-.21.05-.07.01-.15.03-.22.06-.08.03-.14.09-.19.19.03.09.04.16.04.2,0,.12-.05.21-.12.28-.08.07-.12.17-.12.28,0,.07.01.16.05.27.03.11.05.19.05.27,0,.06-.02.14-.05.24-.03.1-.05.21-.06.33,0,.16.01.3.06.41.05.11.07.22.07.32,0,.06-.02.12-.05.18.01.07.02.14.01.2,0,.06,0,.12,0,.18,0,.12-.01.23-.02.34-.01.11-.02.24-.02.39,0,.07.02.13.07.16.05.03.07.09.07.18.04.14.11.23.21.28.1.06.22.09.35.11.13.02.27.03.42.05.15.01.28.03.4.05.04,0,.07,0,.07.02.34-.02.7-.02,1.07,0,.38.01.73-.01,1.05-.07.19-.04.33-.14.41-.32.08-.17.12-.3.12-.37,0-.07,0-.14-.03-.21-.02-.07-.04-.13-.05-.19v-.13s.02-.09.04-.13c.02-.04.04-.11.04-.2,0-.1,0-.18-.01-.22v-.02s0-.11,0-.11c0-.07.06-.15.17-.22.11-.07.2-.1.26-.1h.11c.09-.08.21-.15.35-.19.14-.05.29-.09.44-.14.15-.05.3-.1.45-.17.15-.07.28-.17.39-.3.08-.09.17-.15.28-.19.11-.04.19-.13.22-.26,0-.07.03-.13.08-.17.05-.04.11-.08.16-.12.05-.03.1-.07.15-.12.05-.04.07-.11.07-.2v-.07s.02-.04.05-.04c.06-.19.15-.39.26-.6.11-.21.17-.37.17-.49,0-.07,0-.16-.01-.26-.01-.1-.02-.18-.01-.25,0-.13.04-.25.1-.36.06-.11.1-.24.1-.41,0-.1-.02-.2-.07-.29-.05-.09-.07-.2-.07-.31,0-.03.01-.06.03-.1.02-.04.02-.07.03-.1v-.09c-.11-.11-.16-.27-.15-.49.02-.22-.02-.39-.1-.51-.06-.11-.1-.21-.12-.3s-.05-.2-.08-.32c-.09-.05-.15-.1-.2-.17-.05-.07-.09-.14-.14-.22,0-.15-.07-.25-.17-.29-.1-.05-.17-.12-.21-.23,0-.12-.04-.21-.12-.28-.09-.07-.17-.12-.26-.15-.09,0-.15-.06-.19-.18-.04-.12-.13-.2-.26-.23-.03-.07-.08-.12-.16-.13-.08-.01-.15-.05-.21-.11-.07-.15-.19-.22-.37-.21-.18,0-.32-.03-.42-.13-.06,0-.11-.02-.15-.06-.04-.04-.08-.07-.11-.1-.16,0-.31-.04-.45-.1-.14-.06-.29-.1-.45-.1-.05,0-.09,0-.13.02-.05.01-.09.02-.13.02h-.09s-.07,0-.09.02C6.09.05,5.62.02,5.16,0"/></g></g></svg>