<?xml version="1.0" encoding="UTF-8"?><svg id="Calque_2" xmlns="http://www.w3.org/2000/svg" xmlns:xlink="http://www.w3.org/1999/xlink" viewBox="0 0 16.05 14.12"><defs><style>.cls-1{fill:none;}.cls-2{fill:#1d1d1b;}.cls-3{clip-path:url(#clippath);}</style><clipPath id="clippath"><rect class="cls-1" width="16.05" height="14.12"/></clipPath></defs><g id="Calque_1-2"><g class="cls-3"><path class="cls-2" d="M11.52,11.73l.15.66-2.33.52-.15-.66,2.33-.52ZM4.56,11.48l2.34.46-.13.66-2.34-.46.13-.66ZM11.69,10.39l.13.66-2.57.49-.13-.66,2.57-.49ZM14.73,10.03l-1.6.42v1.39s1.6-.21,1.6-.21v-1.61ZM4.59,9.99l2.23.37-.11.66-2.23-.37.11-.66ZM15.4,9.15v3.07s-2.92.38-2.92.38c-.01-.89-.01-1.78-.03-2.67l2.94-.78ZM10.58,9l.16.65-1.41.34-.16-.65,1.41-.34ZM4.55,8.56l2.3.28-.08.66-2.3-.28.08-.66ZM.65,8.01c1.11.12,2.31.28,3.15.49v4.15l-3.12-.28c-.01-1.45-.02-2.9-.03-4.36M15.13,7.77l.17.65-3.82.99-.17-.65,3.83-.99ZM13.05,6.92l.18.65-3.99,1.1-.18-.65,3.99-1.1ZM3.77,6.78l3.06.46-.1.66-3.06-.46.1-.66ZM.9,6.41l1.86.19-.07.67-1.86-.2.07-.66ZM15.02,6.35l.18.65-1.22.34-.18-.65,1.22-.34ZM11.8,5.57l.18.65-2.68.74-.18-.65,2.68-.74ZM.78,4.91c2.14.25,4.26.52,6.04,1l-.17.65c-1.72-.46-3.81-.73-5.95-.98l.08-.66ZM14.88,4.73l.19.64-2.09.63-.19-.64,2.09-.63ZM5.06,3.99l1.85.36-.13.66-1.85-.36.13-.66ZM3.07,3.6l1.21.23-.13.66-1.21-.23.13-.66ZM1.05,3.17l1.34.24-.12.66-1.34-.24.12-.66ZM1.04,1.43c2.27.53,4.3,1.15,5.86,1.67v.71c-1.55-.52-3.77-1.21-6.01-1.73l.15-.65ZM15.27.99l.03,2.5c-2.22.66-4.27,1.42-6.3,2.09-.02-.78-.03-1.56-.04-2.34,1.97-1.09,4.15-1.8,6.31-2.26M16.05,0c-4.32.59-6,1.66-7.69,2.78v11.34c2.18-.54,4.46-1.06,7.69-1.09V0ZM0,0v13.03c3.23.04,5.51.55,7.69,1.09V2.78C6,1.66,4.31.59,0,0"/></g></g></svg>