<?xml version="1.0" encoding="UTF-8"?><svg id="Calque_2" xmlns="http://www.w3.org/2000/svg" xmlns:xlink="http://www.w3.org/1999/xlink" viewBox="0 0 17.51 17.51"><defs><style>.cls-1{fill:none;}.cls-2{fill:#1d1d1b;}.cls-3{clip-path:url(#clippath);}</style><clipPath id="clippath"><rect class="cls-1" width="17.51" height="17.51"/></clipPath></defs><g id="Calque_1-2"><g class="cls-3"><path class="cls-2" d="M11.87,8.21c-.07,0-.15,0-.23.02-.26.05-.45.16-.58.32-.12.17-.16.37-.12.62.05.24.15.42.33.53.18.11.39.14.65.09.26-.05.45-.16.58-.32.12-.17.16-.37.12-.61-.05-.24-.15-.42-.33-.53-.12-.08-.26-.12-.42-.12ZM11.5,6.45c-.06,0-.13,0-.19.02-.24.04-.41.14-.52.28-.11.14-.14.32-.1.53.04.21.13.36.28.45.15.09.35.12.59.07.23-.04.41-.14.52-.28.11-.14.15-.32.11-.53-.04-.21-.14-.36-.29-.45-.1-.06-.21-.09-.34-.09-.02,0-.04,0-.06,0ZM11.59,6c.25,0,.46.04.64.14.26.15.43.38.49.7.04.23.01.44-.09.62-.1.19-.26.33-.48.43.27.01.5.09.68.25.18.15.3.36.34.61.07.39,0,.71-.19.97-.2.25-.52.42-.97.5s-.81.04-1.09-.12c-.28-.17-.45-.44-.52-.84-.05-.26-.01-.49.1-.7.11-.21.3-.36.55-.47-.25-.01-.45-.09-.61-.23-.16-.14-.26-.32-.3-.55-.06-.32,0-.6.2-.83.2-.23.49-.38.9-.46.13-.02.24-.04.36-.04ZM11.28,4.3c-2.06,0-3.72,1.72-3.72,3.85s1.67,3.85,3.72,3.85,3.73-1.72,3.73-3.85-1.67-3.85-3.73-3.85ZM5.16,2.67c-.77,0-1.91,1.12-2.73,2.74-.93,1.85-1.09,3.65-.35,4.03.74.37.93-1.44,1.87-3.29.93-1.85,2.26-3.04,1.52-3.41-.09-.05-.2-.07-.3-.07ZM8.76.68c4.47,0,8.08,3.61,8.08,8.08s-3.61,8.08-8.08,8.08S.68,13.22.68,8.75,4.29.68,8.76.68M8.76,0C3.92,0,0,3.92,0,8.75s3.92,8.76,8.76,8.76,8.76-3.92,8.76-8.76S13.59,0,8.76,0"/></g></g></svg>