<?xml version="1.0" encoding="UTF-8"?><svg id="Calque_2" xmlns="http://www.w3.org/2000/svg" xmlns:xlink="http://www.w3.org/1999/xlink" viewBox="0 0 17.81 16"><defs><style>.cls-1{fill:none;}.cls-2{fill:#1d1d1b;}.cls-3{clip-path:url(#clippath);}</style><clipPath id="clippath"><rect class="cls-1" width="17.81" height="16"/></clipPath></defs><g id="Calque_1-2"><g class="cls-3"><path class="cls-2" d="M17.04,7.24h-3.15l1.51-4.01,1.64,4.01ZM2.27,5.33h0l1.63,4.01H.76l1.51-4.01ZM17.81,7.37v-.07l-.03-.06-2.07-5.08-.03-.08.32-.31-.58-.53s-2.97.82-4.63.8c-.64,0-1.07-.22-1.36-.48.19-.16.31-.4.31-.67C9.74.4,9.34,0,8.85,0s-.89.4-.89.89c0,.31.16.58.4.74-.23.26-.58.51-1.12.66-1.65.46-5.04,1.05-5.04,1.05l-.53.49.3.34-.04.11L.02,9.34l-.02.06v.06C0,10.16.31,10.73.75,11.09c.45.36,1.02.53,1.59.53s1.14-.17,1.59-.53c.45-.36.75-.93.75-1.63v-.07l-.03-.06-2.03-4.98c.88-.11,2.99-1.1,4.27-.73.81.04,1.07-.03,1.34.4l-1.04,7.57.79,1.12c-.66.29-1.2.92-1.39,1.9-2.07.23-3.53.77-3.53,1.39h11.53c0-.63-1.46-1.16-3.53-1.39-.18-.98-.72-1.63-1.37-1.92l1.22-1-1.31-7.63c.28-.42.23-.56,1.12-.7,1.29-.38,3.42-1.21,4.29-1.1l-1.88,4.98-.02.06v.06c0,.7.31,1.27.75,1.63.45.36,1.02.53,1.59.53s1.14-.17,1.59-.53c.45-.36.75-.93.75-1.63"/></g></g></svg>