<?xml version="1.0" encoding="UTF-8"?><svg id="Calque_2" xmlns="http://www.w3.org/2000/svg" xmlns:xlink="http://www.w3.org/1999/xlink" viewBox="0 0 26.99 18.45"><defs><style>.cls-1{fill:none;}.cls-2{fill:#1d1d1b;}.cls-3{clip-path:url(#clippath);}</style><clipPath id="clippath"><rect class="cls-1" width="26.99" height="18.45"/></clipPath></defs><g id="Calque_1-2"><g class="cls-3"><path class="cls-2" d="M3.13,12.28c-.15-.26-.22-.56-.23-.86-.1-.07-.22-.11-.35-.13-.07,0-.12-.06-.14-.11-.02-.07,0-.13.04-.19.4-.51.38-1.32-.06-1.79-.2-.21-.47-.32-.75-.26-.19.04-.35.17-.47.33-.37.48-.37,1.25.02,1.73.04.05.07.12.05.18-.06.21-.33.03-.64.41C.06,12.24,0,13.61,0,14.42h.64c.09,0,.15.08.16.16l.2,2.63h1.69s.08-1.2.08-1.2h-.59c-.09,0-.16-.07-.18-.16l.03-1.09c.01-.38.07-.75.16-1.12.14-.56.39-1.1.94-1.36M4.79,12.23c.4-.51.38-1.32-.06-1.79-.2-.21-.47-.32-.75-.26-.19.04-.35.17-.47.32-.37.49-.37,1.25.02,1.73.04.05.07.12.05.18-.06.21-.33.03-.64.41-.53.64-.58,2.01-.59,2.82h.64c.08,0,.15.08.16.16l.2,2.63h1.69s.18-2.63.18-2.63c0-.1.08-.16.17-.16h.58c0-.81.06-3.01-1.07-3.12-.07,0-.12-.06-.14-.11-.02-.07,0-.13.04-.19M8.27,12.34c-.14-.55-.4-.99-.89-1.05-.07,0-.12-.06-.14-.11-.02-.07,0-.13.04-.19.4-.51.38-1.32-.06-1.79-.2-.21-.47-.32-.75-.26-.19.04-.35.17-.47.33-.37.48-.37,1.25.02,1.73.04.05.07.12.05.18-.06.21-.33.03-.64.41,0,.01-.01.03-.02.04-.03.21-.09.42-.19.61.59.24.84.78.97,1.37.07.34.12.68.12,1.03l.02,1.18c0,.1-.09.18-.19.18h-.39s.09,1.2.09,1.2h1.69s.08-1.2.08-1.2h-.18c-.1,0-.17-.07-.18-.16l.03-1.09c.01-.38.07-.75.15-1.12.13-.52.37-1.02.85-1.3M10.03,12.23c.4-.51.38-1.32-.06-1.79-.2-.21-.47-.32-.75-.26-.19.04-.35.17-.47.32-.37.49-.37,1.25.02,1.73.04.05.07.12.05.18-.06.21-.33.03-.64.41-.53.64-.58,2.01-.59,2.82h.64c.09,0,.15.08.16.16l.2,2.63h1.69s.18-2.63.18-2.63c0-.1.08-.16.17-.16h.58c0-.81.06-3.01-1.07-3.12-.07,0-.12-.06-.14-.11-.02-.07,0-.13.04-.19M12.05,9.2c-.2-.21-.47-.32-.75-.26-.19.04-.35.17-.47.33-.37.48-.37,1.25.02,1.73.04.05.07.12.05.18-.03.11-.12.11-.24.14,0,.31-.06.63-.22.92.59.24.84.78.97,1.37.07.34.12.68.12,1.03l.02,1.18c0,.1-.09.18-.19.18h-.58s-.08,1.2-.08,1.2h1.64s.18-2.63.18-2.63c0-.1.09-.16.18-.16h.58c0-.81.06-3.01-1.07-3.12-.06,0-.12-.06-.14-.11-.02-.07,0-.13.04-.19.4-.51.38-1.32-.06-1.79M26.39,10.13c-.02,1.79-.01,3.58-.01,5.37,0,.07-.03.14-.05.27h-3.22v-1.31c.35,0,.69,0,1.03,0,.17,0,.36.03.52-.02.13-.05.23-.21.34-.32-.1-.09-.19-.24-.31-.27-.19-.05-.39-.03-.59-.03-.32,0-.63,0-1,0v-1.14c.19-.02.38-.05.57-.06.27-.01.55,0,.82,0,.22,0,.5.03.49-.3-.01-.3-.28-.3-.51-.3-.44,0-.88,0-1.4,0v-1.17c.45-.01.89-.02,1.33-.04.23-.01.57.07.57-.29,0-.35-.32-.31-.57-.31-.42,0-.84,0-1.31,0v-2.62c.16.08.31.13.44.22.81.53,1.61,1.08,2.42,1.61.27.17.43.36.42.71M20.75,2.61c-2.2.02-4.36,0-6.57.01v-.65h6.57v.64ZM19.09,1.28h-3.27v-.54c.19-.18,2.34-.2,3.27-.05v.59ZM21.13,6.88h-1.32v-2.28h1.26c.11.73.03,1.46.06,2.28M19.76,7.58h1.33v2.24h-1.27c-.14-.72-.04-1.45-.06-2.24M19.12,12.82h-1.31c-.1-.76-.07-1.51-.01-2.3h1.3c.09.76.06,1.51.01,2.3M19.1,9.86h-1.28v-2.28h1.28v2.28ZM19.13,6.88h-1.33v-2.27h1.31c.08.74.04,1.49.02,2.27M17.15,9.85h-1.33c-.08-.75-.03-1.49-.03-2.28h1.29c.16.76.04,1.5.08,2.28M17.12,6.86h-1.3v-2.27h1.29c.07.76.05,1.49.01,2.27M15.09,12.81h-1.24c-.08-.74-.02-1.49-.03-2.3h1.23c.18.53.19,1.5.05,2.3M15.15,6.86h-1.29v-2.24h1.29v2.24ZM13.82,7.58h1.31v2.28h-1.27c-.09-.76-.03-1.49-.04-2.28M13.86,13.53h1.29v2.25h-1.29v-2.25ZM15.79,10.52h1.3c.13.76.03,1.49.06,2.28h-1.34c-.07-.73-.03-1.46-.02-2.28M15.79,13.5h1.34c.05.75.03,1.49,0,2.28h-1.32c-.07-.75-.02-1.5-.03-2.28M17.79,13.49h1.31v2.28h-1.3c-.06-.73-.04-1.46,0-2.28M19.8,10.54h1.28v2.28h-1.28v-2.28ZM19.81,13.51h1.27v2.28h-1.27v-2.28ZM26.99,9.85c0-.37-.14-.59-.44-.79-1-.65-1.98-1.34-2.99-1.98-.38-.24-.53-.52-.52-.97.03-.97.02-1.94,0-2.91,0-.48-.09-.55-.57-.58-.34-.02-.68-.02-1.03-.03-.04-.45-.06-.81-.1-1.23-.55-.03-1.03-.05-1.54-.07-.04-.44-.08-.83-.11-1.19-.9-.16-3.91-.13-4.47.05-.03.35-.06.71-.09,1.12-.52.04-1.03.08-1.55.11-.04.44-.07.81-.1,1.18-.54.04-1.02.08-1.6.12v5.98c.2.09.39.22.53.41.03.04.04.09.07.13,0-2.83.03-5.56.1-5.91h9.82v12.48c-.22,0-.4.02-.63.03-.02-.19-.05-.33-.05-.47,0-3.33,0-6.67,0-10,0-.3,0-.6,0-.9,0-.35-.17-.5-.5-.49-.1,0-.2,0-.3,0-2.31,0-4.63,0-6.94,0-.22,0-.43.03-.73.06-.06.81-.02,1.57-.03,2.33,0,.8,0,1.59,0,2.39v2.31c0,.2,0,.4,0,.6.13.22.22.48.28.74.07.35.12.68.12,1.04l.02,1.18c0,.1-.09.18-.19.18h-.24v1c-.16,0-.29.02-.41.02l-.04.64c4.46,0,8.93,0,13.39,0,.24,0,.48-.03.75-.05.03-.23.07-.4.08-.56,0-1.99,0-3.98.01-5.98"/></g></g></svg>