<?xml version="1.0" encoding="UTF-8"?><svg id="Calque_2" xmlns="http://www.w3.org/2000/svg" xmlns:xlink="http://www.w3.org/1999/xlink" viewBox="0 0 14.09 13.76"><defs><style>.cls-1{fill:none;}.cls-2{fill:#1d1d1b;}.cls-3{clip-path:url(#clippath);}</style><clipPath id="clippath"><rect class="cls-1" width="14.09" height="13.76"/></clipPath></defs><g id="Calque_1-2"><g class="cls-3"><path class="cls-2" d="M0,13.76h1.06V.14H0v13.62ZM13.37,4.46l-.63.77.16.8-.76-.2-.76.63.16-.9-.63-.41.86-.35.37-.89.37.68.86-.13ZM9.19,4.86l-.63.49.16.88-.76-.54-.76.3.16-.83-.63-.69.86.03.37-.73.37.84.86.24ZM5,3.83l-.63.7.16.82-.76-.29-.76.55.16-.88-.63-.48.86-.26.37-.85.37.72.86-.04ZM14.09,8.82V0l-.8.57c-1.87,1.35-3.64.93-5.51.33C5.91.3,3.94-.52,1.98.54l-.32.18v8.73l.74-.4c1.53-.83,3.21-.18,5.12.43,1.91.61,4.08,1.13,6.3-.47l.27-.2Z"/></g></g></svg>