<?xml version="1.0" encoding="UTF-8"?><svg id="Calque_2" xmlns="http://www.w3.org/2000/svg" xmlns:xlink="http://www.w3.org/1999/xlink" viewBox="0 0 16.57 18.71"><defs><style>.cls-1{fill:none;}.cls-2{fill:#1d1d1b;}.cls-3{clip-path:url(#clippath);}</style><clipPath id="clippath"><rect class="cls-1" width="16.57" height="18.71"/></clipPath></defs><g id="Calque_1-2"><g class="cls-3"><path class="cls-2" d="M15.22,10.14c-.76,0-1.35.62-1.35,1.38s.6,1.35,1.35,1.35,1.36-.6,1.36-1.35-.6-1.38-1.36-1.38ZM1.37,8.1C.61,8.1.01,8.72.01,9.47s.6,1.36,1.36,1.36,1.36-.6,1.36-1.36-.6-1.38-1.36-1.38ZM7.93,5.66c-.13,0-.26.02-.39.05-1.03.27-1.56,1.59-1.2,2.94.14.52.4.97.72,1.31-.77.18-1.36.54-1.62.98h-.02s-1.66,2.57-1.66,2.57l-2.03-.88c-1.18-.65-2.46.96-1.23,1.67l3.78,1.76,1.52-2c.86,1.55.63,3.1-1.01,4.65h6.77c-1.59-1.53-1.7-3.06-.93-4.58l1.47,1.94,3.78-1.76c.47-.27.57-.66.47-1.01-.33.21-.72.33-1.13.33-.57,0-1.09-.23-1.46-.6l-1.12.49-1.66-2.58h0c-.22-.38-.69-.69-1.3-.89.46-.57.64-1.48.39-2.4-.32-1.18-1.22-1.99-2.12-1.99ZM14.42,3.35c-.76,0-1.36.62-1.36,1.38s.6,1.36,1.36,1.36,1.35-.6,1.35-1.36-.6-1.38-1.35-1.38ZM3.05,2.45c-.76,0-1.36.62-1.36,1.38s.6,1.35,1.36,1.35,1.36-.6,1.36-1.35-.6-1.38-1.36-1.38ZM9.14,0c-.76,0-1.36.62-1.36,1.38s.6,1.35,1.36,1.35,1.35-.6,1.35-1.35-.6-1.38-1.35-1.38Z"/></g></g></svg>