<?xml version="1.0" encoding="UTF-8"?><svg id="Calque_2" xmlns="http://www.w3.org/2000/svg" xmlns:xlink="http://www.w3.org/1999/xlink" viewBox="0 0 20.69 11.39"><defs><style>.cls-1{fill:none;}.cls-2{fill:#1d1d1b;}.cls-3{clip-path:url(#clippath);}</style><clipPath id="clippath"><rect class="cls-1" width="20.69" height="11.39"/></clipPath></defs><g id="Calque_1-2"><g class="cls-3"><path class="cls-2" d="M10.34,3.9c-1.47,0-2.67,1.19-2.67,2.67s1.19,2.67,2.67,2.67,2.67-1.19,2.67-2.67-1.19-2.67-2.67-2.67M6.93,3.33c-.8.84-1.3,1.99-1.3,3.24s.49,2.38,1.28,3.22c-1.7-.61-3.36-1.68-4.94-3.23,1.58-1.55,3.25-2.62,4.96-3.23h0ZM13.74,3.33c1.7.61,3.38,1.68,4.96,3.23-1.58,1.55-3.25,2.62-4.94,3.23.79-.84,1.28-1.98,1.28-3.22s-.49-2.4-1.3-3.24ZM10.34,2.85c2.06,0,3.72,1.66,3.72,3.72s-1.66,3.72-3.72,3.72-3.72-1.66-3.72-3.72,1.66-3.72,3.72-3.72ZM10.89,0h-.98s0,1.75,0,1.75c-.84.03-1.68.17-2.5.4l-.54-1.75-.94.29.54,1.77c-.66.24-1.31.55-1.95.92l-1.01-1.61-.83.52,1,1.6c-.56.38-1.11.8-1.66,1.27l-1.36-1.27-.67.72,1.31,1.22c-.13.13-.26.26-.39.39l-.33.34.33.34c2.87,2.96,6.13,4.48,9.42,4.48s6.55-1.52,9.42-4.48l.33-.34-.33-.34c-.12-.13-.25-.25-.38-.38l1.32-1.23-.67-.72-1.37,1.28c-.48-.42-.97-.81-1.47-1.15l1.02-1.62-.83-.52-1.01,1.61c-.67-.4-1.36-.74-2.06-1l.54-1.77-.94-.29-.53,1.74c-.82-.24-1.64-.37-2.47-.42V0Z"/></g></g></svg>