<?xml version="1.0" encoding="UTF-8"?><svg id="Calque_2" xmlns="http://www.w3.org/2000/svg" xmlns:xlink="http://www.w3.org/1999/xlink" viewBox="0 0 22.11 21.17"><defs><style>.cls-1{fill:none;}.cls-2{fill:#1d1d1b;}.cls-3{clip-path:url(#clippath);}</style><clipPath id="clippath"><rect class="cls-1" width="22.11" height="21.17"/></clipPath></defs><g id="Calque_1-2"><g class="cls-3"><path class="cls-2" d="M3.22,17.54c-1.06.51-2.08,1.06-3.1,1.65-.27.16-.12,1.06.55,1.47.17.1.33.08.5-.05,1.02-.8,1.99-1.61,2.92-2.48.15-.14,1.04-.98.85-1.16-.29-.12-1.41.42-1.73.57M6.01,10.59c.29-.36-3.15-3.4-3.51-3.73-.15-.13-.3-.19-.5-.11-.42.17-.74.56-.84,1.01-.04.2.04.35.2.45,1.09.7,3.11,1.96,4.28,2.39.1.04.29.09.37-.01M7.83,5.63c.42-.19.02-4.43-.04-5.11-.02-.21-.09-.36-.3-.44-.74-.27-1.57.17-1.48.53.33,1.36.7,2.68,1.18,3.99.07.2.41,1.13.64,1.03M15.06,5.22c.2-.3-.37-1.03-1.12-1.1-.2-.02-.34.07-.42.24-.5,1.03-.96,2.04-1.38,3.11-.12.3-.64,1.59-.45,1.81.19.17,1.03-.85,1.15-1.02.79-.99,1.52-2,2.23-3.05M16.37,10.55c.09-.14.03-.35-.05-.45-.08-.1-.23-.17-.39-.15l-4.54.5-2.88-3.6c-.12-.15-.3-.16-.45-.12-.16.05-.25.17-.29.35l-.92,4.45-4.31,1.63c-.16.06-.24.22-.25.35-.01.15.05.31.19.4l4,2.28.21,4.57c0,.2.13.33.28.39.17.06.32,0,.46-.12l3.36-3.06,4.41,1.21c.17.03.33,0,.43-.12.1-.11.16-.28.09-.44l-1.9-4.2,2.55-3.88ZM21.53,12.69c-.49.06-5.22.67-5.14,1.16.08.47,4.6.59,5.27.61.14-.06.23-.13.29-.24.32-.62.12-1.6-.42-1.53"/></g></g></svg>