<?xml version="1.0" encoding="UTF-8"?><svg id="Calque_2" xmlns="http://www.w3.org/2000/svg" xmlns:xlink="http://www.w3.org/1999/xlink" viewBox="0 0 14.17 14.11"><defs><style>.cls-1{fill:none;}.cls-2{fill:#1d1d1b;}.cls-3{clip-path:url(#clippath);}</style><clipPath id="clippath"><rect class="cls-1" width="14.17" height="14.11"/></clipPath></defs><g id="Calque_1-2"><g class="cls-3"><path class="cls-2" d="M13.91,2.83H3.25c-.15-.02-.26-.11-.26-.27v-.79c0-.16.12-.27.29-.27h10.61c.16,0,.28.11.28.27v.79c0,.14-.09.24-.25.26"/><path class="cls-2" d="M14.17,5.39c0,.12-.1.26-.24.26H3.23c-.14-.02-.24-.11-.25-.26v-.79c0-.14.1-.27.26-.27h10.66c.14,0,.26.12.26.25v.8Z"/><path class="cls-2" d="M13.92,14.11H3.25c-.15,0-.26-.12-.26-.25v-.83c0-.11.12-.23.24-.23h10.65c.16,0,.28.1.28.26v.8c-.02.13-.09.23-.25.25"/><path class="cls-2" d="M13.88,8.47H3.24c-.14-.02-.25-.11-.25-.26v-.81c0-.14.11-.25.26-.25h10.64c.17,0,.28.11.28.27v.76c0,.17-.11.28-.29.28"/><path class="cls-2" d="M13.89,11.29H3.25c-.15,0-.26-.12-.26-.25v-.79c0-.14.09-.27.25-.27h10.66c.15,0,.27.11.27.25v.81c0,.14-.11.25-.27.25"/><path class="cls-2" d="M.11,2.39c-.13-.13-.16-.29-.02-.42l.56-.56c.1-.1.27-.07.36.01l.23.23L1.73.18c.04-.12.18-.21.31-.17l.76.25c.15.05.22.19.17.35l-1.02,3.06c-.03.09-.09.16-.15.18-.08.03-.2.02-.26-.03L.11,2.39Z"/><path class="cls-2" d="M.08,10.82c-.12-.11-.1-.28,0-.38l.55-.55c.11-.11.27-.1.38,0l.23.22.49-1.47c.04-.13.19-.22.32-.17l.77.26c.12.04.2.19.15.32l-1.03,3.1c-.03.08-.11.15-.17.16-.09.03-.19,0-.26-.06L.08,10.82Z"/></g></g></svg>