<?xml version="1.0" encoding="UTF-8"?><svg id="Calque_2" xmlns="http://www.w3.org/2000/svg" xmlns:xlink="http://www.w3.org/1999/xlink" viewBox="0 0 14.68 17.08"><defs><style>.cls-1{fill:none;}.cls-2{fill:#1d1d1b;}.cls-3{clip-path:url(#clippath);}</style><clipPath id="clippath"><rect class="cls-1" width="14.68" height="17.08"/></clipPath></defs><g id="Calque_1-2"><g class="cls-3"><path class="cls-2" d="M10.97,5.84c-.1-.21-.17-.34-.17-.58.01-.62.05-1.05-.11-1.67C9.75-.14,4.96-.97,2.09,1.12-.02,2.67-.64,5.83.72,8.08c.31.51.63.84,1.02,1.26.53.58.65,1.12.48,1.9-.02.11-.07.23-.1.34l-.02.02c-.27-.06-.48-.3-.77-.14-.13.07-.18.2-.19.34-.06.86.05,1.78,0,2.64,0,.15.1.29.25.35l7.37,2.3c.22.02.39-.12.44-.33v-1.8c-.05-.12-.12-.2-.23-.26-.26-.15-.6-.25-.87-.39v-1.19s.1-.26.1-.26l-.58-.52c-.16.19-.29.48-.31.74-.03.27.02.58,0,.86l-4.46-1.98c.31-.91.38-1.93-.2-2.75-.23-.32-.54-.58-.79-.88-1.14-1.39-1.35-3.03-.72-4.71C2.48.06,8.45-.26,9.8,3.38c.14.39.21.79.24,1.2l-.03.04-1.48-.35c-.31-.04-.7.09-.99.2-.17.07-.24.2-.17.39.14.39.75-.05,1.01-.03l1.6.38s.01.22.02.29c.02.23.13.41.21.62.02.02.23-.08.28-.1.1-.03.27-.02.35-.04.02,0,.13-.11.13-.14M3.01,6.83c-.32-.77.56-1.47,1.23-.97.14.11.15.21.38.18.19-.02.27-.24.2-.4-.04-.08-.25-.26-.34-.31-.8-.49-1.84-.06-2.05.85-.17.73.24,1.4.93,1.65.02.22.07.44.21.61.34.41.97.42,1.31.02.09-.1.19-.23.21-.37.06-.39-.38-.52-.54-.2-.02.05-.03.1-.06.15-.12.2-.43.19-.53-.02-.08-.18-.02-.32-.17-.52-.23-.3-.58-.23-.77-.67M8.86,5.52c-.02.09.02.37.01.38-.04.03-.26,0-.33,0-.11,0-.23,0-.34,0-.09,0-.24.02-.3.09-.18.19-.06.47.2.49.28.02.84.03,1.12,0,.15-.01.26-.12.27-.28,0-.12-.04-.44-.06-.57-.03-.2-.15-.34-.38-.29-.07.01-.17.11-.19.18M13.85,12.62c-.05.7-.7,1.25-.8,1.95-.03.22,0,.46-.02.68h-1.77s0-.65,0-.65c-.06-.69-.75-.92-1.21-1.3-.28-.65-.8-1.1-1.29-1.58-.01-.01-.03-.03-.05-.03.04-.07.12-.02.17,0,.3.15.72.59,1.04.63.45.06.79-.28.82-.72.07-1.04-.06-2.17,0-3.22.03-.36-.05-.8,0-1.15.01-.11.14-.1.17-.02v2.93c.15.39.66.39.79,0l.02-3.35c.03-.09.17-.08.17.02,0,.59,0,1.18,0,1.76,0,.44-.04,1.03,0,1.46.05.5.74.52.81.01.06-.48-.02-1.08-.01-1.57l.03-1.48c.13-.09.16.02.17.14.02.25,0,.56,0,.81,0,.66,0,1.32,0,1.98,0,.13-.02.27,0,.4.07.39.73.39.78-.05.05-.53-.04-1.15,0-1.69.02-.15.19-.16.19,0v4.01ZM14.66,8.59c-.03-.47-.34-.83-.8-.89-.05,0-.16.02-.19-.03-.04-.33.06-.68-.09-.99-.19-.4-.7-.61-1.11-.43-.35-.36-.9-.4-1.28-.05-.07.07-.11.15-.18.21-.36-.09-.74.08-.94.39-.27.42-.1,1.14-.15,1.62v3.04s-.04,0-.06-.02c-.3-.17-.55-.45-.89-.53-.67-.17-1.57.32-1.12,1.08.32.35.75.66,1.06,1.02.19.22.27.42.41.66.22.38.7.56,1.03.84.19.17.09.53.1.76-.02.03-.15.01-.2.02-.13.03-.23.16-.25.29.02.38-.04.81,0,1.18.02.19.16.31.35.33h3.59c.19-.01.33-.14.35-.33.03-.38-.02-.82,0-1.22-.02-.12-.14-.24-.26-.26-.05,0-.16,0-.18-.02-.01-.29-.04-.55.08-.82.32-.74.7-1.03.74-1.93.06-1.29-.05-2.62,0-3.91"/></g></g></svg>