<?xml version="1.0" encoding="UTF-8"?><svg id="Calque_2" xmlns="http://www.w3.org/2000/svg" xmlns:xlink="http://www.w3.org/1999/xlink" viewBox="0 0 16.44 18.59"><defs><style>.cls-1{fill:none;}.cls-2{fill:#1d1d1b;}.cls-3{clip-path:url(#clippath);}</style><clipPath id="clippath"><rect class="cls-1" width="16.44" height="18.59"/></clipPath></defs><g id="Calque_1-2"><g class="cls-3"><path class="cls-2" d="M8.97,9.29c0,.42-.33.76-.75.76s-.75-.34-.75-.76.33-.76.75-.76.75.34.75.76M9.5,9.29c0-.72-.57-1.3-1.28-1.3s-1.28.58-1.28,1.3.58,1.3,1.28,1.3,1.28-.58,1.28-1.3M12.97,8.71c-.51-.41-1.06-.82-1.67-1.21-.05-.69-.12-1.36-.21-2,2.24-.83,3.96-1.02,4.35-.34.39.68-.64,2.05-2.47,3.55M10.22,5.84c.04.33.06.69.09,1.04-.18-.11-.35-.22-.53-.33-.18-.1-.35-.18-.52-.27.32-.15.64-.31.95-.44M10.09,4.91c-.6.23-1.23.51-1.86.82-.64-.31-1.26-.58-1.86-.81.39-2.36,1.07-3.95,1.86-3.95s1.48,1.59,1.87,3.95M5.35,5.5c-.1.64-.18,1.29-.23,2-.6.4-1.15.81-1.66,1.22-1.84-1.5-2.86-2.88-2.47-3.56.39-.69,2.11-.5,4.36.34M3.46,9.88c.51.41,1.07.82,1.67,1.21.05.69.12,1.37.21,2-2.24.83-3.96,1.02-4.35.34-.39-.68.64-2.05,2.47-3.55M6.22,12.74c-.04-.33-.07-.69-.09-1.04.18.11.34.22.53.33.17.1.35.18.52.27-.32.15-.65.31-.95.44M6.35,13.67c.6-.23,1.23-.51,1.86-.82.64.31,1.26.58,1.86.81-.39,2.36-1.07,3.95-1.86,3.95s-1.48-1.59-1.87-3.95M11.38,9.29c0-.22-.02-.42-.02-.63.31.21.6.41.88.62-.28.21-.57.42-.88.63,0-.21.02-.41.02-.63M10.21,12.74c-.31-.13-.63-.28-.95-.43.18-.1.35-.17.53-.27.19-.11.35-.22.53-.33-.03.36-.07.7-.11,1.04M5.06,9.29c0,.22.02.42.02.63-.3-.21-.6-.42-.88-.62.28-.21.57-.42.88-.63,0,.21-.02.41-.02.63M8.22,6.79c.36.19.72.38,1.09.59.37.21.72.43,1.07.65.02.42.04.83.04,1.26s-.02.85-.03,1.26c-.35.22-.7.44-1.08.65-.37.21-.73.4-1.1.59-.36-.19-.72-.38-1.09-.59-.37-.21-.72-.43-1.07-.65-.02-.41-.04-.83-.04-1.26s.02-.85.03-1.26c.35-.22.7-.44,1.08-.66.37-.21.73-.4,1.1-.59M6.23,5.85c.31.13.63.28.95.43-.18.09-.35.17-.53.27-.19.11-.35.22-.53.33.03-.36.07-.7.11-1.04M11.09,13.09c.1-.64.18-1.3.23-2,.6-.4,1.15-.81,1.66-1.22,1.84,1.5,2.86,2.87,2.47,3.56-.39.69-2.11.5-4.36-.34M16.29,4.68c-.58-1.01-2.7-.95-5.36-.06C10.38,1.87,9.38,0,8.22,0s-2.18,1.86-2.72,4.61c-2.66-.89-4.77-.94-5.35.07-.57,1,.53,2.78,2.61,4.6C.67,11.12-.42,12.9.15,13.9c.58,1.01,2.69.95,5.35.07.55,2.75,1.55,4.62,2.71,4.62s2.17-1.86,2.72-4.61c2.65.88,4.77.94,5.35-.07.57-1-.53-2.78-2.61-4.6,2.09-1.83,3.18-3.61,2.61-4.62"/></g></g></svg>