<?xml version="1.0" encoding="UTF-8"?><svg id="Calque_2" xmlns="http://www.w3.org/2000/svg" xmlns:xlink="http://www.w3.org/1999/xlink" viewBox="0 0 21.02 23.99"><defs><style>.cls-1{fill:none;}.cls-2{fill:#1d1d1b;}.cls-3{clip-path:url(#clippath);}</style><clipPath id="clippath"><rect class="cls-1" width="21.02" height="23.99"/></clipPath></defs><g id="Calque_1-2"><g class="cls-3"><path class="cls-2" d="M7.52,9.87h11.91c.36.04.51-.3.48-.6H7.04c-.03.34.13.59.48.6M9.09,16.23l1.61,2.7c.73-.48,1.5-.79,2.09-1.46.71-.81,1.25-1.88,1.92-2.72.75-.95,2.32-2.56,3.33-3.18.31-.19.89-.22.55-.79-.19-.33-.6-.19-.89-.23-.11-.02-.19-.12-.31-.14-.38-.07-.59.06-.86.3l-.03-.3c-.17-.26-.72.2-.79.15-.31-.67-.98.4-1.19.73-.64,1.02-1.21,3.05-2.84,2.43-.89-.34-.82-1.11-1.24-1.83-.27-.46-.66-.94-1.15-1.16-.32-.14-.99-.32-1.22.04-.26.4.15.55.36.82.46.59,1.12,1.57,1.19,2.33.06.64-.43.97-.57,1.59-.06.27-.07.5.02.76M7.86,16.56L0,20.27l7.18,3.72,2.7-4.09-.12-.38.7-.48c-.21-.33-1.55-2.73-1.74-2.73-.22,0-.55.39-.87.26M20.74,8.4c-.07-.2.01-.57-.01-.81-.4-3.42-3.2-6.3-6.66-6.55.26-1.42-1.63-1.35-1.27,0-3.2.14-6,2.73-6.63,5.84-.1.51-.07,1.15-.18,1.6-.02.09-.19.08-.22.17l.08.32h15.09c.26-.34-.16-.44-.19-.56"/></g></g></svg>