<?xml version="1.0" encoding="UTF-8"?><svg id="Calque_2" xmlns="http://www.w3.org/2000/svg" xmlns:xlink="http://www.w3.org/1999/xlink" viewBox="0 0 15.07 14.88"><defs><style>.cls-1{fill:none;}.cls-2{fill:#1d1d1b;}.cls-3{clip-path:url(#clippath);}</style><clipPath id="clippath"><rect class="cls-1" width="15.07" height="14.88"/></clipPath></defs><g id="Calque_1-2"><g class="cls-3"><path class="cls-2" d="M12.8,1.01c.3.26.81.65,1.29.93,0,0-1.1.03-1.36-.36-.11-.16-.22-.3.07-.57M7.62,0C5.6,0,3.25.55,2.23,1.65-.43,4.5-.95,10.76,1.98,13.34c3.07,2.71,10.01,1.68,12.15-1.81,1.35-2.21-.28-6.01-2.48-7.38-2.24-1.4-6.38-1.14-7.87,1.05-1.12,1.66-.33,4.95,1.47,5.83,1.79.88,5.02-.47,5.47-2.41.23-1-1.01-2.04-1.99-2.33-.93-.27-2.6-.1-2.79.85-.18.87,1.23,1.74,2.04,1.72.57-.02-1.5-.94-1.15-1.44.56-.8,2.72-.03,2.76.94.06,1.37-2.55,2.28-3.78,1.66-1.28-.65-1.74-3.05-.89-4.2,1.09-1.49,3.95-1.49,5.51-.5,1.56.99,2.84,3.61,1.91,5.2-1.56,2.66-6.8,3.46-9.14,1.45-2.26-1.95-1.94-6.76.09-8.94,1.93-2.09,7.58-1.66,8.49-.75.56.84,1.5,1.85,2.85,1.2-.85-.24-1.36-.66-1.59-1.22.53.2,1.51-.02,2.04-.2C14.65,1.56,13.35,0,12.14.71,12.14.71,10.07,0,7.62,0"/></g></g></svg>