<?xml version="1.0" encoding="UTF-8"?><svg id="Calque_2" xmlns="http://www.w3.org/2000/svg" xmlns:xlink="http://www.w3.org/1999/xlink" viewBox="0 0 19.63 18.8"><defs><style>.cls-1{fill:none;}.cls-2{fill:#1d1d1b;}.cls-3{clip-path:url(#clippath);}</style><clipPath id="clippath"><rect class="cls-1" width="19.63" height="18.8"/></clipPath></defs><g id="Calque_1-2"><g class="cls-3"><path class="cls-2" d="M17.12,16.56c-.16,0-.37.12-.59.36-.22.24-.44.59-.63.94-.18.34-.31.67-.42.93h3.53c-.13-.27-.3-.6-.5-.94-.22-.36-.48-.71-.73-.95-.26-.24-.49-.35-.67-.34ZM12.48,16.56c-.16,0-.37.12-.59.36-.22.24-.44.59-.63.94-.17.34-.32.67-.42.93h3.53c-.13-.27-.3-.6-.5-.94-.22-.36-.48-.71-.73-.95s-.49-.35-.66-.34ZM7.84,16.56c-.16,0-.37.12-.59.36-.22.24-.44.59-.63.94-.18.34-.32.67-.42.93h3.53c-.13-.27-.3-.6-.5-.94-.22-.36-.48-.71-.73-.95-.26-.24-.49-.35-.67-.34M17.1,12.59c-.69,0-1.32.74-1.32,1.74,0,.75.36,1.35.83,1.61.15-.07.31-.11.48-.12.19,0,.37.03.54.1.45-.26.8-.85.8-1.59,0-1.01-.64-1.74-1.33-1.74M12.47,12.59c-.69,0-1.33.74-1.33,1.74,0,.75.36,1.35.83,1.61.15-.07.31-.11.48-.12.19,0,.37.03.54.1.45-.26.8-.85.8-1.59,0-1.01-.64-1.74-1.32-1.74M7.83,12.59c-.69,0-1.32.74-1.32,1.74,0,.75.36,1.35.83,1.61.15-.07.31-.11.48-.12.19,0,.37.03.54.1.45-.26.8-.85.8-1.59,0-1.01-.64-1.74-1.32-1.74M5.59,10.6c-.04.23-.08.48-.13.74h13.55v-.74H5.59ZM9.65,5.37l-4.5.84c-.59-.23-.2-.13-.89-.35-.31.23-.68.36-1.08.36-.36,0-.68-.1-.97-.29-.36.15-.73.34-1.07.52-.54.3-.98.55-1.15.66v5.39h.83v-4.6h.75v10.89h1.24v-7h.74v7h1.08v-7.15c.4-2.1.53-3.2.56-4.54l4.54-.94-.09-.8ZM3.19,1.99c-.69,0-1.33.74-1.33,1.74s.64,1.74,1.33,1.74,1.33-.73,1.33-1.74-.64-1.74-1.33-1.74M4.22,0v1.57c.63.44,1.03,1.26,1.03,2.16,0,.57-.16,1.1-.44,1.53.14.06.3.12.42.17l5.07-.94.24,2.27-4.63.96c-.04.67-.1,1.34-.22,2.13h13.92V0H4.22Z"/></g></g></svg>