<?xml version="1.0" encoding="UTF-8"?><svg id="Calque_2" xmlns="http://www.w3.org/2000/svg" xmlns:xlink="http://www.w3.org/1999/xlink" viewBox="0 0 15.87 15.93"><defs><style>.cls-1{fill:none;}.cls-2{fill:#1d1d1b;}.cls-3{clip-path:url(#clippath);}</style><clipPath id="clippath"><rect class="cls-1" width="15.87" height="15.93"/></clipPath></defs><g id="Calque_1-2"><g class="cls-3"><path class="cls-2" d="M2.99,11.31c.62.21,1.77.85,2.68,1.54.46.35.85.7,1.07,1.07.1.16.18.34.17.54l-.69-.32c-.32-.39-.8-.76-1.2-.99-.82-.58-1.82-1.11-2.25-1.26l.2-.59ZM5.93,8.33l.31.54-4.57,2.65c-.13.08-.16.13-.17.17,0,.04,0,.11.06.23.02.03.04.07.07.1h-.01c.6.9,1.81,2.07,2.99,2.7-.79-.35-1.7-.84-2.43-1.36-.51-.36-.93-.73-1.16-1.14-.11-.2-.18-.44-.12-.68.06-.24.23-.44.46-.57l4.57-2.64h0ZM13.8,8.06c-1.18,0-1.19,1.8,0,1.8s1.18-1.8,0-1.8ZM15.3,5.18c-.76,0-.76,1.16,0,1.16s.76-1.16,0-1.16M7.47,3.86c-.06,0-.13.03-.2.1-.16.15-.27.46-.06.81.05.08.09.15.15.22l-.47.88-1.15,2L.59,10.81h0c-.37.21-.55.49-.59.8-.03.31.08.68.44,1.05,1.52,1.61,3.38,2.6,5.52,3.18.52.14.88.09,1.11-.07.22-.16.37-.45.37-.95v-5.94s1.28-2.2,1.28-2.2c-.47-.13-.87-.36-1.22-.63l.3-.56c.45.41,1.06.69,1.84.69.39,0,.61-.25.67-.45.03-.1.01-.18-.02-.23-.03-.05-.1-.11-.29-.12-1.04-.08-1.8-.53-2.28-1.33-.09-.16-.17-.18-.23-.19,0,0-.02,0-.02,0ZM5.3,1.88c-.76,0-.76,1.16,0,1.16s.76-1.16,0-1.16M13.87.17c-.76,0-.77,1.16,0,1.16s.76-1.16,0-1.16M11.59,0c-.38,0-.7.25-.83.67-.82-.25-1.92-.14-2.29.66-.52-.7-1.6-.47-1.85.33-.24.8.45,1.66,1.49,1.62-.1,1.14,1.48,1.83,2.73,1.31-.02.64.28,1.4,1.02,1.5-.21.61.1,1.41.96,1.41,1.05,0,1.27-1.21.7-1.78.32-.35.43-.84.37-1.31.58.41,1.16-.22,1.13-.67-.05-.84-.68-1.2-1.13-.81-.29-.92-1.25-1.07-1.76-.55.05-.25,0-.44-.18-.64.76-.19.63-1.26.16-1.57-.18-.12-.37-.17-.54-.18Z"/></g></g></svg>